<?xml version="1.0" encoding="utf-8"?>
<svg width="44" height="62" viewBox="0 0 44 62" xmlns="http://www.w3.org/2000/svg" xmlns:bx="https://boxy-svg.com">
  <g>
    <path style="fill: none; stroke-width: 2px; stroke: rgb(255, 255, 255);" d="M 22.036 59.983 L 21.913 59.775 L 22.035 59.985 L 21.933 59.782 L 17.004 52.423 L 2.996 31.444 C 2.148 30.08 1.331 28.103 1.031 26.375 C 0.622 24.019 0.94 22.624 0.94 22.624 C 1.409 16.51 3.719 11.261 7.868 6.877 C 12.33 2.163 18.632 0.137 26.709 1.49 C 32.168 2.405 36.911 6.251 39.912 11.867 C 40.789 13.508 41.782 16.003 42.253 18.318 C 42.714 20.581 42.773 22.662 42.778 23.384 L 42.783 23.376 C 42.783 23.376 43.024 25.015 42.545 27.273 C 42.178 29.004 41.378 30.878 40.538 32.193 L 23.905 57.111 L 22.036 59.983 Z"/>
    <path d="M 501.051 305.305 m -7.769 0 a 7.769 7.769 0 1 0 15.538 0 a 7.769 7.769 0 1 0 -15.538 0 Z M 501.051 305.305 m -5.454 0 a 5.454 5.454 0 0 1 10.908 0 a 5.454 5.454 0 0 1 -10.908 0 Z" style="fill: rgb(255, 255, 255); stroke-width: 2px;" transform="matrix(-0.41105, 0.911613, -0.911613, -0.41105, 506.59282, -309.7866)" bx:shape="ring 501.051 305.305 5.454 5.454 7.769 7.769 1@33644a02"/>
  </g>
</svg>